<?xml version="1.0" encoding="UTF-8"?>
<svg width="192px" height="306px" viewBox="0 0 192 306" version="1.1" xmlns="http://www.w3.org/2000/svg" xmlns:xlink="http://www.w3.org/1999/xlink">
    <!-- Generator: Sketch 47.1 (45422) - http://www.bohemiancoding.com/sketch -->
    <title>TrakBar</title>
    <desc>Created with Sketch.</desc>
    <defs></defs>
    <g id="Page-1" stroke="none" stroke-width="1" fill="none" fill-rule="evenodd">
        <polygon id="Rectangle" fill="#A7CC46" points="74 5 91.5 0 109 5 109 305 74 305"></polygon>
        <rect id="Rectangle" fill="#000000" x="109" y="5" width="35" height="300"></rect>
        <rect id="Rectangle-2" fill="#D43D30" x="74" y="264" width="35" height="41"></rect>
        <rect id="Rectangle-2" fill="#FEC930" x="74" y="147" width="35" height="117"></rect>
        <path d="M74.5,146.5 L108.5,146.5" id="Line" stroke="#FFFFFF" stroke-width="2" stroke-linecap="square"></path>
        <path d="M110,146.5 L157.5,146.5" id="Line-2" stroke="#F37E1F" stroke-width="2" stroke-linecap="square"></path>
        <path d="M74.5,263.5 L108.5,263.5" id="Line" stroke="#FFFFFF" stroke-width="2" stroke-linecap="square"></path>
        <path d="M110,263.5 L157.5,263.5" id="Line-2" stroke="#F37E1F" stroke-width="2" stroke-linecap="square"></path>
        <path d="M110,304 L143,304" id="Line-2" stroke="#F37E1F" stroke-width="2" stroke-linecap="square"></path>
        <path d="M167.324219,144.23877 L169.375,144.026367 C169.433594,144.490237 169.606932,144.857665 169.89502,145.128662 C170.183107,145.39966 170.515135,145.535156 170.891113,145.535156 C171.320803,145.535156 171.684569,145.360597 171.982422,145.011475 C172.280275,144.662352 172.429199,144.136234 172.429199,143.433105 C172.429199,142.773922 172.281496,142.279543 171.986084,141.949951 C171.690672,141.62036 171.306155,141.455566 170.83252,141.455566 C170.241696,141.455566 169.711916,141.716794 169.243164,142.239258 L167.573242,141.997559 L168.62793,136.40918 L174.069824,136.40918 L174.069824,138.335449 L170.187988,138.335449 L169.865723,140.15918 C170.324709,139.929686 170.793455,139.814941 171.271973,139.814941 C172.185063,139.814941 172.958981,140.146969 173.59375,140.811035 C174.228519,141.475101 174.545898,142.336909 174.545898,143.396484 C174.545898,144.280278 174.289553,145.068844 173.776855,145.762207 C173.07861,146.709477 172.109381,147.183105 170.869141,147.183105 C169.877925,147.183105 169.069827,146.916995 168.444824,146.384766 C167.819821,145.852536 167.44629,145.137212 167.324219,144.23877 Z M175.666504,144.23877 L177.717285,144.026367 C177.775879,144.490237 177.949217,144.857665 178.237305,145.128662 C178.525392,145.39966 178.85742,145.535156 179.233398,145.535156 C179.663088,145.535156 180.026854,145.360597 180.324707,145.011475 C180.62256,144.662352 180.771484,144.136234 180.771484,143.433105 C180.771484,142.773922 180.623781,142.279543 180.328369,141.949951 C180.032958,141.62036 179.64844,141.455566 179.174805,141.455566 C178.583981,141.455566 178.054202,141.716794 177.585449,142.239258 L175.915527,141.997559 L176.970215,136.40918 L182.412109,136.40918 L182.412109,138.335449 L178.530273,138.335449 L178.208008,140.15918 C178.666994,139.929686 179.13574,139.814941 179.614258,139.814941 C180.527348,139.814941 181.301266,140.146969 181.936035,140.811035 C182.570804,141.475101 182.888184,142.336909 182.888184,143.396484 C182.888184,144.280278 182.631839,145.068844 182.119141,145.762207 C181.420895,146.709477 180.451666,147.183105 179.211426,147.183105 C178.22021,147.183105 177.412113,146.916995 176.787109,146.384766 C176.162106,145.852536 175.788575,145.137212 175.666504,144.23877 Z M161.419189,160 L161.419189,152.125977 L163.798584,152.125977 L165.227295,157.49707 L166.639893,152.125977 L169.024658,152.125977 L169.024658,160 L167.547607,160 L167.547607,153.801758 L165.984619,160 L164.453857,160 L162.89624,153.801758 L162.89624,160 L161.419189,160 Z M169.787354,160.134277 L171.737061,151.991699 L172.870361,151.991699 L170.89917,160.134277 L169.787354,160.134277 Z M173.536377,154.295898 L174.92749,154.295898 L174.92749,155.074707 C175.425214,154.469561 176.017819,154.166992 176.705322,154.166992 C177.070558,154.166992 177.38745,154.242187 177.656006,154.392578 C177.924562,154.54297 178.144775,154.770344 178.31665,155.074707 C178.567303,154.770344 178.837645,154.54297 179.127686,154.392578 C179.417726,154.242187 179.727456,154.166992 180.056885,154.166992 C180.475832,154.166992 180.830321,154.252034 181.120361,154.422119 C181.410402,154.592205 181.627034,154.841958 181.770264,155.171387 C181.874105,155.414878 181.926025,155.808754 181.926025,156.353027 L181.926025,160 L180.416748,160 L180.416748,156.739746 C180.416748,156.173988 180.364828,155.808757 180.260986,155.644043 C180.121337,155.429198 179.906496,155.321777 179.616455,155.321777 C179.405191,155.321777 179.206463,155.38623 179.020264,155.515137 C178.834065,155.644044 178.699789,155.832925 178.617432,156.081787 C178.535074,156.330649 178.493896,156.72363 178.493896,157.260742 L178.493896,160 L176.984619,160 L176.984619,156.874023 C176.984619,156.319008 176.957764,155.960938 176.904053,155.799805 C176.850342,155.638671 176.76709,155.518718 176.654297,155.439941 C176.541503,155.361165 176.388429,155.321777 176.195068,155.321777 C175.96232,155.321777 175.752849,155.384439 175.56665,155.509766 C175.380452,155.635092 175.247071,155.815917 175.166504,156.052246 C175.085937,156.288575 175.045654,156.680661 175.045654,157.228516 L175.045654,160 L173.536377,160 L173.536377,154.295898 Z M183.483643,160 L183.483643,152.19043 L185.073486,152.19043 L185.073486,158.67334 L189.026611,158.67334 L189.026611,160 L183.483643,160 Z" id="55-M/mL" fill="#F37E1F"></path>
        <path d="M172.561035,264 L170.50293,264 L170.50293,256.243652 C169.750973,256.946781 168.864751,257.466795 167.844238,257.803711 L167.844238,255.936035 C168.38135,255.760253 168.964841,255.427004 169.594727,254.936279 C170.224613,254.445554 170.656737,253.87305 170.891113,253.21875 L172.561035,253.21875 L172.561035,264 Z M175.666504,261.23877 L177.717285,261.026367 C177.775879,261.490237 177.949217,261.857665 178.237305,262.128662 C178.525392,262.39966 178.85742,262.535156 179.233398,262.535156 C179.663088,262.535156 180.026854,262.360597 180.324707,262.011475 C180.62256,261.662352 180.771484,261.136234 180.771484,260.433105 C180.771484,259.773922 180.623781,259.279543 180.328369,258.949951 C180.032958,258.62036 179.64844,258.455566 179.174805,258.455566 C178.583981,258.455566 178.054202,258.716794 177.585449,259.239258 L175.915527,258.997559 L176.970215,253.40918 L182.412109,253.40918 L182.412109,255.335449 L178.530273,255.335449 L178.208008,257.15918 C178.666994,256.929686 179.13574,256.814941 179.614258,256.814941 C180.527348,256.814941 181.301266,257.146969 181.936035,257.811035 C182.570804,258.475101 182.888184,259.336909 182.888184,260.396484 C182.888184,261.280278 182.631839,262.068844 182.119141,262.762207 C181.420895,263.709477 180.451666,264.183105 179.211426,264.183105 C178.22021,264.183105 177.412112,263.916995 176.787109,263.384766 C176.162106,262.852536 175.788575,262.137212 175.666504,261.23877 Z M161.419189,277 L161.419189,269.125977 L163.798584,269.125977 L165.227295,274.49707 L166.639893,269.125977 L169.024658,269.125977 L169.024658,277 L167.547607,277 L167.547607,270.801758 L165.984619,277 L164.453857,277 L162.89624,270.801758 L162.89624,277 L161.419189,277 Z M169.787354,277.134277 L171.737061,268.991699 L172.870361,268.991699 L170.89917,277.134277 L169.787354,277.134277 Z M173.536377,271.295898 L174.92749,271.295898 L174.92749,272.074707 C175.425214,271.469561 176.017819,271.166992 176.705322,271.166992 C177.070558,271.166992 177.38745,271.242187 177.656006,271.392578 C177.924562,271.54297 178.144775,271.770344 178.31665,272.074707 C178.567303,271.770344 178.837645,271.54297 179.127686,271.392578 C179.417726,271.242187 179.727456,271.166992 180.056885,271.166992 C180.475832,271.166992 180.830321,271.252034 181.120361,271.422119 C181.410402,271.592205 181.627034,271.841958 181.770264,272.171387 C181.874105,272.414878 181.926025,272.808754 181.926025,273.353027 L181.926025,277 L180.416748,277 L180.416748,273.739746 C180.416748,273.173988 180.364828,272.808757 180.260986,272.644043 C180.121337,272.429198 179.906496,272.321777 179.616455,272.321777 C179.405191,272.321777 179.206463,272.38623 179.020264,272.515137 C178.834065,272.644044 178.699789,272.832925 178.617432,273.081787 C178.535074,273.330649 178.493896,273.72363 178.493896,274.260742 L178.493896,277 L176.984619,277 L176.984619,273.874023 C176.984619,273.319008 176.957764,272.960938 176.904053,272.799805 C176.850342,272.638671 176.76709,272.518718 176.654297,272.439941 C176.541503,272.361165 176.388429,272.321777 176.195068,272.321777 C175.96232,272.321777 175.752849,272.384439 175.56665,272.509766 C175.380452,272.635092 175.247071,272.815917 175.166504,273.052246 C175.085937,273.288575 175.045654,273.680661 175.045654,274.228516 L175.045654,277 L173.536377,277 L173.536377,271.295898 Z M183.483643,277 L183.483643,269.19043 L185.073486,269.19043 L185.073486,275.67334 L189.026611,275.67334 L189.026611,277 L183.483643,277 Z" id="15-M/mL" fill="#F37E1F"></path>
        <path d="M16.432373,89.2709961 C14.9284593,89.2709961 13.7187546,88.7497611 12.8032227,87.7072754 C11.8876907,86.6647897 11.4299316,85.2866297 11.4299316,83.5727539 C11.4299316,81.8491125 11.8901321,80.4709524 12.8105469,79.4382324 C13.7309616,78.4055124 14.9601974,77.8891602 16.498291,77.8891602 C18.0315018,77.8891602 19.2595169,78.4042917 20.182373,79.4345703 C21.1052292,80.4648489 21.5666504,81.8393469 21.5666504,83.5581055 C21.5666504,85.3110439 21.1052292,86.7014109 20.182373,87.729248 C19.2595169,88.7570852 18.0095294,89.2709961 16.432373,89.2709961 Z M16.4543457,88.1210938 C17.5627497,88.1210938 18.4196747,87.7219278 19.0251465,86.923584 C19.6306183,86.1252401 19.9333496,84.9985424 19.9333496,83.543457 C19.9333496,82.1323172 19.6293976,81.0288126 19.0214844,80.2329102 C18.4135712,79.4370077 17.5725151,79.0390625 16.498291,79.0390625 C15.4191841,79.0390625 14.5769073,79.4382284 13.9714355,80.2365723 C13.3659638,81.0349161 13.0632324,82.1445241 13.0632324,83.5654297 C13.0632324,84.9814524 13.3635224,86.0947225 13.9641113,86.9052734 C14.5647003,87.7158244 15.3947701,88.1210938 16.4543457,88.1210938 Z M23.763916,91.8930664 L23.763916,81.0458984 L25.2067871,81.0458984 L25.2067871,82.5400391 C25.7976104,81.4267522 26.683832,80.8701172 27.8654785,80.8701172 C28.8225146,80.8701172 29.5756808,81.2192348 30.125,81.9174805 C30.6743192,82.6157261 30.9489746,83.5703064 30.9489746,84.78125 C30.9489746,86.099616 30.6376984,87.1628378 30.0151367,87.9709473 C29.392575,88.7790568 28.5734914,89.1831055 27.5578613,89.1831055 C26.6154738,89.1831055 25.8317902,88.821781 25.2067871,88.0991211 L25.2067871,91.8930664 L23.763916,91.8930664 Z M25.2067871,87.1030273 C25.9489783,87.7670932 26.6569791,88.0991211 27.3308105,88.0991211 C28.7175362,88.0991211 29.4108887,87.0420028 29.4108887,84.9277344 C29.4108887,83.0624907 28.7956604,82.1298828 27.5651855,82.1298828 C26.7595175,82.1298828 25.9733925,82.5668902 25.2067871,83.440918 L25.2067871,87.1030273 Z M35.5925293,89.1831055 C34.8601038,89.1831055 34.2888204,88.9731466 33.8786621,88.5532227 C33.4685038,88.1332987 33.2634277,87.5498084 33.2634277,86.8027344 L33.2634277,82.1298828 L32.267334,82.1298828 L32.267334,81.0458984 L33.2634277,81.0458984 L33.2634277,79.6030273 L34.7062988,79.4638672 L34.7062988,81.0458984 L36.786377,81.0458984 L36.786377,82.1298828 L34.7062988,82.1298828 L34.7062988,86.5390625 C34.7062988,87.5791068 35.1555131,88.0991211 36.0539551,88.0991211 C36.2443857,88.0991211 36.476317,88.0673831 36.7497559,88.0039062 L36.7497559,89 C36.3054177,89.1220709 35.9196794,89.1831055 35.5925293,89.1831055 Z M38.8151855,89 L38.8151855,81.0458984 L40.2580566,81.0458984 L40.2580566,89 L38.8151855,89 Z M38.8151855,79.6030273 L38.8151855,78.1601562 L40.2580566,78.1601562 L40.2580566,79.6030273 L38.8151855,79.6030273 Z M43.151123,89 L43.151123,81.0458984 L44.5939941,81.0458984 L44.5939941,82.5400391 C45.2971227,81.4267522 46.2004339,80.8701172 47.3039551,80.8701172 C48.3684135,80.8701172 49.0935039,81.4267522 49.479248,82.5400391 C50.1628452,81.4218694 51.0515082,80.862793 52.1452637,80.862793 C52.8483922,80.862793 53.3928203,81.0690897 53.7785645,81.4816895 C54.1643086,81.8942892 54.3571777,82.471676 54.3571777,83.2138672 L54.3571777,89 L52.9069824,89 L52.9069824,83.440918 C52.9069824,82.5327103 52.5480993,82.0786133 51.8303223,82.0786133 C51.0832482,82.0786133 50.2995646,82.6083931 49.479248,83.6679688 L49.479248,89 L48.0290527,89 L48.0290527,83.440918 C48.0290527,82.5278275 47.6628455,82.0712891 46.9304199,82.0712891 C46.2028772,82.0712891 45.4240764,82.6035103 44.5939941,83.6679688 L44.5939941,89 L43.151123,89 Z M61.2565918,87.9892578 C60.3923297,88.7851602 59.5598185,89.1831055 58.7590332,89.1831055 C58.0998502,89.1831055 57.5529807,88.9768087 57.1184082,88.564209 C56.6838357,88.1516093 56.4665527,87.6303742 56.4665527,87.0004883 C56.4665527,86.1313433 56.8315393,85.4636254 57.5615234,84.9973145 C58.2915076,84.5310035 59.3376397,84.2978516 60.6999512,84.2978516 L61.0441895,84.2978516 L61.0441895,83.3383789 C61.0441895,82.4155227 60.5705614,81.9541016 59.623291,81.9541016 C58.8615685,81.9541016 58.0388228,82.1884742 57.1550293,82.6572266 L57.1550293,81.4633789 C58.1267138,81.0678691 59.0373493,80.8701172 59.8869629,80.8701172 C60.7756392,80.8701172 61.4311502,81.0703105 61.8535156,81.4707031 C62.275881,81.8710958 62.4870605,82.4936481 62.4870605,83.3383789 L62.4870605,86.9418945 C62.4870605,87.767094 62.7409643,88.1796875 63.2487793,88.1796875 C63.3122562,88.1796875 63.4050287,88.169922 63.5270996,88.1503906 L63.6296387,88.9487305 C63.3024886,89.1049812 62.9411641,89.1831055 62.5456543,89.1831055 C61.8718228,89.1831055 61.4421396,88.7851602 61.2565918,87.9892578 Z M61.0441895,87.2055664 L61.0441895,85.1474609 L60.560791,85.1328125 C59.7697714,85.1328125 59.1301294,85.2829575 58.6418457,85.583252 C58.153562,85.8835464 57.9094238,86.2778296 57.9094238,86.7661133 C57.9094238,87.1127947 58.0314929,87.4057605 58.2756348,87.6450195 C58.5197766,87.8842785 58.8176252,88.0039062 59.1691895,88.0039062 C59.7697784,88.0039062 60.3947721,87.7377956 61.0441895,87.2055664 Z M65.4387207,89 L65.4387207,77.4350586 L66.8815918,77.4350586 L66.8815918,89 L65.4387207,89 Z" id="Optimal" fill="#000000"></path>
        <path d="M1.73876953,209 L1.73876953,198.160156 L3.87011719,198.160156 L6.87304687,206.546387 L9.96386719,198.160156 L11.8681641,198.160156 L11.8681641,209 L10.4326172,209 L10.4326172,200.181641 L7.44433594,208.274902 L5.95751953,208.274902 L3.05712891,200.159668 L3.05712891,209 L1.73876953,209 Z M17.8154297,209.183105 C16.6777287,209.183105 15.7695346,208.805912 15.0908203,208.051514 C14.412106,207.297115 14.0727539,206.287604 14.0727539,205.022949 C14.0727539,203.743646 14.4133267,202.731693 15.0944824,201.987061 C15.7756382,201.242428 16.6997012,200.870117 17.8666992,200.870117 C19.0336972,200.870117 19.9577603,201.242428 20.638916,201.987061 C21.3200718,202.731693 21.6606445,203.738763 21.6606445,205.008301 C21.6606445,206.307135 21.3188511,207.327633 20.6352539,208.069824 C19.9516567,208.812015 19.0117247,209.183105 17.8154297,209.183105 Z M17.8374023,208.099121 C19.3657303,208.099121 20.1298828,207.068858 20.1298828,205.008301 C20.1298828,202.972158 19.3754958,201.954102 17.8666992,201.954102 C16.3627854,201.954102 15.6108398,202.977041 15.6108398,205.022949 C15.6108398,207.073741 16.3530199,208.099121 17.8374023,208.099121 Z M29.0214844,209 L29.0214844,207.505859 C28.4355439,208.624029 27.5517637,209.183105 26.3701172,209.183105 C25.4130812,209.183105 24.6599149,208.833988 24.1105957,208.135742 C23.5612766,207.437497 23.2866211,206.482916 23.2866211,205.271973 C23.2866211,203.948724 23.5978973,202.884281 24.220459,202.078613 C24.8430207,201.272945 25.6621043,200.870117 26.6777344,200.870117 C27.6201219,200.870117 28.4013641,201.231442 29.0214844,201.954102 L29.0214844,197.435059 L30.4716797,197.435059 L30.4716797,209 L29.0214844,209 Z M29.0214844,202.942871 C28.2744103,202.283688 27.5664096,201.954102 26.8974609,201.954102 C25.5156181,201.954102 24.824707,203.01122 24.824707,205.125488 C24.824707,206.985849 25.4399353,207.916016 26.6704102,207.916016 C27.4711954,207.916016 28.254879,207.479008 29.0214844,206.60498 L29.0214844,202.942871 Z M39.1875,208.743652 C38.2206983,209.036623 37.3930698,209.183105 36.7045898,209.183105 C35.532709,209.183105 34.576908,208.793705 33.8371582,208.014893 C33.0974084,207.23608 32.7275391,206.226569 32.7275391,204.986328 C32.7275391,203.780267 33.0534635,202.791508 33.7053223,202.02002 C34.357181,201.248531 35.1909129,200.862793 36.206543,200.862793 C37.1684618,200.862793 37.9118626,201.204586 38.4367676,201.888184 C38.9616725,202.571781 39.2241211,203.543451 39.2241211,204.803223 L39.2167969,205.25 L34.199707,205.25 C34.409669,207.139658 35.3349527,208.084473 36.9755859,208.084473 C37.5761749,208.084473 38.3134722,207.923341 39.1875,207.601074 L39.1875,208.743652 Z M34.265625,204.166016 L37.7739258,204.166016 C37.7739258,202.686516 37.2221735,201.946777 36.1186523,201.946777 C35.0102484,201.946777 34.3925788,202.686516 34.265625,204.166016 Z M41.7143555,209 L41.7143555,201.045898 L43.1572266,201.045898 L43.1572266,202.540039 C43.7285185,201.426752 44.5585883,200.870117 45.6474609,200.870117 C45.793946,200.870117 45.9477531,200.882324 46.1088867,200.906738 L46.1088867,202.254395 C45.859862,202.171386 45.6401377,202.129883 45.449707,202.129883 C44.5366165,202.129883 43.772464,202.67187 43.1572266,203.755859 L43.1572266,209 L41.7143555,209 Z M51.9536133,207.989258 C51.0893511,208.78516 50.2568399,209.183105 49.4560547,209.183105 C48.7968717,209.183105 48.2500022,208.976809 47.8154297,208.564209 C47.3808572,208.151609 47.1635742,207.630374 47.1635742,207.000488 C47.1635742,206.131343 47.5285608,205.463625 48.2585449,204.997314 C48.988529,204.531004 50.0346612,204.297852 51.3969727,204.297852 L51.7412109,204.297852 L51.7412109,203.338379 C51.7412109,202.415523 51.2675829,201.954102 50.3203125,201.954102 C49.5585899,201.954102 48.7358443,202.188474 47.8520508,202.657227 L47.8520508,201.463379 C48.8237353,201.067869 49.7343708,200.870117 50.5839844,200.870117 C51.4726607,200.870117 52.1281717,201.07031 52.5505371,201.470703 C52.9729025,201.871096 53.184082,202.493648 53.184082,203.338379 L53.184082,206.941895 C53.184082,207.767094 53.4379857,208.179688 53.9458008,208.179688 C54.0092777,208.179688 54.1020502,208.169922 54.2241211,208.150391 L54.3266602,208.94873 C53.9995101,209.104981 53.6381856,209.183105 53.2426758,209.183105 C52.5688443,209.183105 52.1391611,208.78516 51.9536133,207.989258 Z M51.7412109,207.205566 L51.7412109,205.147461 L51.2578125,205.132812 C50.4667929,205.132812 49.8271509,205.282957 49.3388672,205.583252 C48.8505835,205.883546 48.6064453,206.27783 48.6064453,206.766113 C48.6064453,207.112795 48.7285144,207.405761 48.9726562,207.64502 C49.2167981,207.884279 49.5146467,208.003906 49.8662109,208.003906 C50.4667999,208.003906 51.0917936,207.737796 51.7412109,207.205566 Z M58.5234375,209.183105 C57.791012,209.183105 57.2197286,208.973147 56.8095703,208.553223 C56.399412,208.133299 56.1943359,207.549808 56.1943359,206.802734 L56.1943359,202.129883 L55.1982422,202.129883 L55.1982422,201.045898 L56.1943359,201.045898 L56.1943359,199.603027 L57.637207,199.463867 L57.637207,201.045898 L59.7172852,201.045898 L59.7172852,202.129883 L57.637207,202.129883 L57.637207,206.539062 C57.637207,207.579107 58.0864213,208.099121 58.9848633,208.099121 C59.1752939,208.099121 59.4072252,208.067383 59.6806641,208.003906 L59.6806641,209 C59.2363259,209.122071 58.8505876,209.183105 58.5234375,209.183105 Z M67.5761719,208.743652 C66.6093702,209.036623 65.7817417,209.183105 65.0932617,209.183105 C63.9213809,209.183105 62.9655799,208.793705 62.2258301,208.014893 C61.4860803,207.23608 61.1162109,206.226569 61.1162109,204.986328 C61.1162109,203.780267 61.4421354,202.791508 62.0939941,202.02002 C62.7458529,201.248531 63.5795848,200.862793 64.5952148,200.862793 C65.5571337,200.862793 66.3005345,201.204586 66.8254395,201.888184 C67.3503444,202.571781 67.612793,203.543451 67.612793,204.803223 L67.6054688,205.25 L62.5883789,205.25 C62.7983409,207.139658 63.7236246,208.084473 65.3642578,208.084473 C65.9648468,208.084473 66.7021441,207.923341 67.5761719,207.601074 L67.5761719,208.743652 Z M62.6542969,204.166016 L66.1625977,204.166016 C66.1625977,202.686516 65.6108454,201.946777 64.5073242,201.946777 C63.3989202,201.946777 62.7812506,202.686516 62.6542969,204.166016 Z" id="Moderate" fill="#000000"></path>
        <path d="M40.5141602,289 L40.5141602,278.160156 L42.0522461,278.160156 L42.0522461,287.850098 L46.9301758,287.850098 L46.9301758,289 L40.5141602,289 Z M51.6689453,289.183105 C50.5312443,289.183105 49.6230503,288.805912 48.9443359,288.051514 C48.2656216,287.297115 47.9262695,286.287604 47.9262695,285.022949 C47.9262695,283.743646 48.2668423,282.731693 48.947998,281.987061 C49.6291538,281.242428 50.5532168,280.870117 51.7202148,280.870117 C52.8872129,280.870117 53.8112759,281.242428 54.4924316,281.987061 C55.1735874,282.731693 55.5141602,283.738763 55.5141602,285.008301 C55.5141602,286.307135 55.1723667,287.327633 54.4887695,288.069824 C53.8051724,288.812015 52.8652404,289.183105 51.6689453,289.183105 Z M51.690918,288.099121 C53.2192459,288.099121 53.9833984,287.068858 53.9833984,285.008301 C53.9833984,282.972158 53.2290115,281.954102 51.7202148,281.954102 C50.2163011,281.954102 49.4643555,282.977041 49.4643555,285.022949 C49.4643555,287.073741 50.2065355,288.099121 51.690918,288.099121 Z M58.6928711,289 L56.4150391,281.045898 L57.8286133,281.045898 L59.5717773,287.205566 L61.4541016,281.045898 L62.8969727,281.045898 L64.5449219,287.205566 L66.5444336,281.045898 L67.7822266,281.045898 L65.1894531,289 L63.7392578,289 L62.0546875,282.840332 L60.1503906,289 L58.6928711,289 Z" id="Low" fill="#000000"></path>
    </g>
</svg>